# xmcd
#
# Track frame offsets:
#	150
#	31886
#	55110
#	76782
#	98142
#	117552
#	136346
#	157780
#	178405
#	199777
#
# Disc length: 2882 seconds
#
# Revision: 1
# Processed by: cddbd v1.5.2PL0 Copyright (c) Steve Scherf et al.
# Submitted via: audiograbber 1.81.02
#
DISCID=7c0b400a
DTITLE=Anand - Mysterious Ways
DYEAR=2000
DGENRE=Instrumental Rock
TTITLE0=Return from the Red Bananaworld
TTITLE1=Mysterious Ways
TTITLE2=Attack of the Horrible Spaces Babes
TTITLE3=Far Away
TTITLE4=What's on a Man's Mind
TTITLE5=Mimi goes Hype
TTITLE6=Side by Side
TTITLE7=Midnight Chaser
TTITLE8=Memories Only
TTITLE9=Boys with Toys
EXTD=
EXTT0=
EXTT1=\n
EXTT2=
EXTT3=
EXTT4=
EXTT5=
EXTT6=
EXTT7=
EXTT8=
EXTT9=
PLAYORDER=
